<svg xmlns="http://www.w3.org/2000/svg" width="800" height="500" viewBox="0 0 800 500">
  <rect width="800" height="500" fill="#f0f2f5"/>
  <rect x="50" y="100" width="700" height="300" rx="20" fill="#e2e6ea"/>
  <g transform="translate(400,250)" fill="#adb5bd">
    <path d="M-120,-40 Q-100,-80 -60,-90 L60,-90 Q100,-80 120,-40 L140,0 L-140,0 Z" fill="#adb5bd"/>
    <rect x="-140" y="0" width="280" height="60" rx="5" fill="#adb5bd"/>
    <circle cx="-90" cy="70" r="28" fill="#868e96"/>
    <circle cx="-90" cy="70" r="16" fill="#adb5bd"/>
    <circle cx="90" cy="70" r="28" fill="#868e96"/>
    <circle cx="90" cy="70" r="16" fill="#adb5bd"/>
    <rect x="-60" y="-85" width="50" height="40" rx="3" fill="#ced4da" opacity="0.7"/>
    <rect x="10" y="-85" width="50" height="40" rx="3" fill="#ced4da" opacity="0.7"/>
    <rect x="-35" y="10" width="70" height="12" rx="3" fill="#ced4da"/>
  </g>
  <text x="400" y="430" text-anchor="middle" font-family="Segoe UI, sans-serif" font-size="18" fill="#868e96">No Image Available</text>
</svg>
